<?xml version="1.0" encoding="UTF-8"?>
<svg id="Camada_1" xmlns="http://www.w3.org/2000/svg" version="1.1" viewBox="0 0 1920 1080">
  <!-- Generator: Adobe Illustrator 30.1.0, SVG Export Plug-In . SVG Version: 2.1.1 Build 136)  -->
  <defs>
    <style>
      .st0 {
        fill: #ffad00;
      }

      .st1 {
        fill: #e9002e;
      }

      .st2 {
        fill: #124099;
      }

      .st3 {
        fill: #a6d014;
      }

      .st4 {
        fill: #ff7500;
      }

      .st5 {
        fill: #00bdd9;
      }

      .st6 {
        fill: #ffba00;
      }

      .st7 {
        fill: #00da34;
      }
    </style>
  </defs>
  <path class="st0" d="M1187.55,940.49c-109.61,60.27-242.47,75.04-362.2,39.43-.16,0-.2-.04-.2-.04-3.93-1.2-7.91-2.49-11.76-3.81-58.34-19.95-107.68-54.81-145.35-98.89-3.29-3.93-6.54-7.95-9.68-12.01-55.53-72.83-80.06-167.19-67.05-257.69.2-1.45.48-3.05.72-4.54.8-5.22,1.97-10.4,3.05-15.54l.16-.56c1.04-4.9,2.29-9.72,3.61-14.61.64-2.61,1.37-5.22,2.09-7.79s1.49-5.14,2.25-7.63c.08-.28.2-.52.24-.84.52-1.81,1.12-3.57,1.73-5.34.16-.4.36-.92.48-1.37,1.12-3.49,2.37-6.91,3.61-10.24,1.45-3.93,3.05-7.79,4.7-11.64,1.16-2.81,2.45-5.62,3.65-8.35.04-.2.2-.36.24-.52h0c1.37-3.05,2.73-6.02,4.18-8.87,2.45-4.98,5.02-9.8,7.71-14.61,1.97-3.45,3.93-6.87,6.06-10.24h.04c2.21-3.61,4.42-7.19,6.79-10.76,9.23-13.81,19.55-26.82,30.68-39.11h.04c43.6-47.58,100.74-82.35,162.89-99.53,6.5-1.77,13.01-3.41,19.67-4.78,2.57-.52,5.06-1,7.59-1.53,2.69-.52,5.38-.96,8.15-1.37h.08c28.15-4.42,57.01-5.38,85.6-2.49,10.4,1.12,20.72,2.69,31,4.86,2.49.48,4.94,1.04,7.43,1.65-49.1-10.4-97.21,2.41-139.4,27.34h-.08c-.84.44-1.69,1.04-2.49,1.57-2.29,1.41-4.58,2.81-6.83,4.26-.8.52-1.65,1-2.41,1.61-1.97,1.2-3.89,2.49-5.7,3.85-1.16.76-2.25,1.45-3.37,2.25-2.01,1.49-4.06,2.97-6.06,4.46l-.52.32c-.92.68-1.81,1.37-2.69,2.05-1.53,1.2-3.09,2.45-4.62,3.77-.4.28-.76.6-1.12.88-.56.4-1.04.84-1.57,1.24-1.37,1.08-2.69,2.21-4.02,3.33-.16.16-.32.28-.48.44-25.78,22-47.9,48.18-65,74.68-7.35,11.92-14.01,23.85-19.75,35.89-1.24,2.53-2.41,5.14-3.53,7.75-.68,1.41-1.32,2.89-1.97,4.38-1,2.25-1.97,4.54-2.89,6.91-.44.88-.76,1.81-1.08,2.77-.4,1.08-.84,2.13-1.2,3.25-28.35,76.17-28.67,161.65-.8,238.01.08.12.08.28.16.4h0s.28.52.24.76c.08.12.08.28.16.4,41.07,104.23,133.58,185.7,245.04,209.43,3.05.6,6.1,1.24,9.19,1.81,2.65.44,5.18.88,7.79,1.28,2.69.4,5.3.8,7.95,1.12h0s.16.04.24.08c2.57.32,5.1.6,7.63.88,4.62.44,9.15.8,13.77,1.08,51.39,2.81,102.1-6.99,149.6-26.66.48-.28,1-.48,1.53-.64,2.41-1,4.82-2.09,7.23-3.13,1.97-.84,3.85-1.69,5.78-2.61,1.65-.72,3.25-1.49,4.86-2.33,2.77-1.28,5.54-2.65,8.27-4.06l-.04-.08Z"/>
  <path class="st6" d="M853.74,360.59c.8-.52,1.65-1.12,2.49-1.61h.08c-.88.52-1.69,1.08-2.57,1.61h0Z"/>
  <path class="st6" d="M821.54,383.16c1.57-1.28,3.05-2.53,4.62-3.77.88-.68,1.77-1.32,2.69-2.05l.52-.32c2.01-1.49,4.06-2.97,6.06-4.46,1.12-.8,2.21-1.53,3.37-2.25-1.16.76-2.21,1.53-3.33,2.33-2.01,1.49-4.06,2.97-6.06,4.46l-.52.32c-.92.68-1.81,1.37-2.69,2.05-1.57,1.24-3.17,2.45-4.66,3.73v-.04Z"/>
  <path class="st6" d="M814.79,388.62c1.32-1.16,2.65-2.25,4.02-3.33.56-.4,1.04-.84,1.57-1.24-1.93,1.49-3.77,3.05-5.58,4.58h0Z"/>
  <path class="st6" d="M718.83,524.65c.4-1.08.84-2.13,1.2-3.25.32-.96.64-1.89,1.08-2.77.92-2.37,1.89-4.66,2.89-6.91.64-1.49,1.28-2.97,1.97-4.38-.72,1.53-1.37,3.01-1.93,4.46-1,2.25-1.97,4.54-2.89,6.91-.44.88-.8,1.81-1.08,2.77-.44,1.04-.84,2.13-1.24,3.17h0Z"/>
  <path class="st7" d="M853.74,360.59c.8-.52,1.65-1.12,2.49-1.61h.08c-.88.52-1.69,1.08-2.57,1.61h0Z"/>
  <path class="st3" d="M1187.55,940.49c-2.73,1.41-5.5,2.81-8.27,4.06-1.57.84-3.21,1.61-4.86,2.33-1.93.96-3.81,1.81-5.78,2.61-2.41,1.08-4.78,2.13-7.23,3.13-.56.16-1.04.36-1.53.64-47.5,19.67-98.25,29.47-149.6,26.66-4.58-.28-9.15-.64-13.77-1.08-2.53-.28-5.06-.56-7.63-.88-1.71-.21-1.79-.21-.24,0h0c-2.65-.36-5.22-.76-7.95-1.16-2.61-.4-5.14-.84-7.79-1.28-3.09-.56-6.14-1.2-9.19-1.81-111.46-23.73-203.97-105.24-245.04-209.43-.08-.12-.08-.28-.16-.4,0-.24-.24-.72-.24-.72h0s-.08-.32-.16-.44c-27.86-76.37-27.54-161.85.8-238.01.4-1.08.84-2.13,1.2-3.25.32-.96.64-1.89,1.08-2.77.92-2.37,1.89-4.66,2.89-6.91.64-1.49,1.28-2.97,1.97-4.38,1.08-2.61,2.29-5.22,3.53-7.75,5.74-12.01,12.41-23.93,19.75-35.89,17.1-26.5,39.23-52.68,65-74.68.16-.16.32-.28.48-.44,1.81-1.53,3.69-3.09,5.58-4.58.36-.28.76-.6,1.12-.88,1.57-1.28,3.05-2.53,4.62-3.77.88-.68,1.77-1.32,2.69-2.05l.52-.32c2.01-1.49,4.06-2.97,6.06-4.46,1.12-.8,2.21-1.53,3.37-2.25,1.85-1.32,3.73-2.61,5.7-3.85.76-.6,1.61-1.08,2.41-1.61,1.53-.96,3.01-1.89,4.62-2.81-41.68,27.38-66.61,70.22-78.9,117.48-3.33,13.57-5.7,27.06-7.27,40.47h0c-.36,2.33-.56,4.58-.76,6.83-.28,3.25-.52,6.38-.72,9.6-.04,1.28-.2,2.57-.24,3.85-.04.72-.08,1.53-.08,2.33s0,1.61-.08,2.33c-.04,1.85-.08,3.69-.12,5.54,0,1.2,0,2.41-.12,3.61v3.65h0c0,2.41.08,4.86.12,7.27.56,22.08,3.25,43.93,7.75,64.2,4.22,18.31,9.6,35.73,16.02,52.16.24.72.52,1.45.88,2.21.16.28.36.6.4.96l.36.64c32.36,76.61,92.67,139.68,167.47,175.66h.08c.12.08.24.16.36.2,106.32,48.18,235.61,39.99,333.81-27.66.96-.64,2.01-1.33,2.97-2.01,1.97-1.37,3.97-2.85,5.9-4.3.68-.48,1.41-.96,2.05-1.49,3.25-2.45,6.38-4.98,9.56-7.47,1.37-1.04,2.69-2.21,4.02-3.33,1.97-1.69,3.89-3.41,5.82-5.18.24-.12.44-.32.64-.52,37.7-34.29,66.33-76.93,85.92-124.39,2.01-4.9,3.97-9.88,5.82-15.02,1.89-5.22,3.69-10.36,5.34-15.58-34.49,122.5-121.86,230.99-231.07,286.44l.08-.04Z"/>
  <path class="st4" d="M1120.1,413.99s-.2-.2-.28-.36c-26.9-39.91-68.82-69.06-115.79-79.86l-.08-.08c-2.73-.68-5.5-1.37-8.23-2.05-2.49-.6-4.94-1.16-7.47-1.65-10.28-2.21-20.64-3.77-30.96-4.82-28.59-2.89-57.5-1.93-85.6,2.53l-.08-.08c-2.81.4-5.5.88-8.15,1.37-2.61.56-5.06,1.04-7.63,1.57-6.67,1.37-13.17,2.93-19.67,4.74-62.15,17.22-119.29,52-162.85,99.53l-.08-.08-.08.08c-11.12,12.29-21.4,25.25-30.68,39.11-2.41,3.49-4.58,7.07-6.79,10.72l-.08.08c-2.05,3.29-4.06,6.79-6.02,10.24-2.69,4.82-5.3,9.6-7.75,14.61-1.37,2.89-2.81,5.74-4.14,8.79v.08c-.08.2-.2.36-.2.56-1.37,2.69-2.49,5.5-3.69,8.35-1.65,3.85-3.21,7.67-4.66,11.64-1.24,3.29-2.45,6.71-3.57,10.24-.12.48-.36.96-.48,1.37-.6,1.77-1.24,3.57-1.73,5.34l-.28.84c-3.17,9.88-5.82,19.87-7.91,30.03l-.2.56c-1.04,5.14-2.25,10.36-3.01,15.58-.28,1.45-.56,3.09-.76,4.54-12.97,90.5,11.52,184.85,67.09,257.65,3.09,4.14,6.38,8.11,9.68,12.01,37.66,44.13,86.97,78.98,145.35,98.93,1.24.48,2.53.88,3.85,1.28-117.04-35.89-218.42-118.89-277-226.37-1.85-3.57-3.65-7.15-5.34-10.72-.08-.08-.08-.12-.12-.2-12.01-24.81-20.64-49.67-26.54-74.28-.6-2.89-1.24-5.78-1.85-8.59-13.85-70.5-4.34-143.02,25.17-206.7.88-1.77,1.73-3.57,2.53-5.3,24.97-49.75,62.15-92.83,107.16-125.27.12-.08.2-.08.28-.2,4.86-3.57,9.96-6.99,15.02-10.24.12-.08.2-.08.28-.2,5.06-3.29,10.28-6.46,15.58-9.4,5.22-2.93,10.44-5.78,15.78-8.51,19.47-9.8,39.99-17.79,61.19-23.65,2.13-.6,4.26-1.16,6.46-1.73.88-.28,1.73-.48,2.61-.68.12,0,.2-.08.36-.08,1.77-.48,3.57-.88,5.34-1.28,77.17-16.54,158.76-4.66,228.3,31.4,1.77.88,3.49,1.77,5.22,2.81,5.3,2.81,10.44,5.82,15.5,8.99,1.08.56,2.13,1.16,3.17,1.77,1.16.76,2.41,1.57,3.57,2.41,1.57.96,3.21,2.13,4.86,3.17,3.09,2.13,6.22,4.34,9.32,6.58,21.76,15.98,42.6,35.21,60.51,56.81,3.09,3.65,6.02,7.43,8.91,11.24,2.05,2.81,4.06,5.54,5.98,8.31,2.33,3.21,4.62,6.5,6.67,9.88.96,1.53,1.93,3.01,2.81,4.54l1.24,2.05-.04.04Z"/>
  <path class="st4" d="M1120.3,414.31c-.2-.2-.36-.48-.48-.68.08.12.12.28.28.36.08.12.12.2.2.36v-.04Z"/>
  <path class="st1" d="M1153.42,529.91h-7.07c-1.57-39.43-5.22-80.66-26.06-115.59-.08-.12-.12-.2-.2-.36l-1.24-2.05c-.88-1.53-1.85-3.01-2.81-4.54-2.05-3.37-4.34-6.67-6.67-9.88-1.93-2.73-3.89-5.5-5.98-8.31-2.89-3.85-5.82-7.63-8.91-11.24-17.91-21.6-38.75-40.83-60.51-56.81-3.09-2.25-6.22-4.46-9.32-6.58-1.65-1.04-3.29-2.21-4.86-3.17-1.16-.84-2.41-1.65-3.57-2.41-1.04-.6-2.05-1.24-3.17-1.77-5.06-3.17-10.24-6.18-15.5-8.99-1.73-1.04-3.41-1.93-5.22-2.81-69.54-36.1-151.13-47.94-228.3-31.4-1.77.4-3.57.8-5.34,1.28-.12,0-.2.08-.36.08-.88.2-1.73.4-2.61.68-2.21.56-4.34,1.08-6.46,1.73-21.2,5.9-41.72,13.85-61.19,23.65-5.34,2.69-10.56,5.5-15.78,8.51-5.3,2.93-10.48,6.1-15.58,9.4-.08.12-.12.12-.28.2-5.06,3.21-10.16,6.67-15.02,10.24-.08.12-.12.12-.28.2-45.01,32.44-82.19,75.52-107.16,125.27-.84,1.73-1.65,3.49-2.53,5.3-29.51,63.68-39.03,136.15-25.17,206.7.6,2.81,1.24,5.7,1.85,8.59,5.9,24.61,14.53,49.47,26.54,74.28-56.33-107.76-69.14-237.41-34.49-354.17,52.08-174.25,235.36-273.63,407.05-227.21,163.13,41.15,270.54,207.3,246.12,371.19h.08Z"/>
  <path class="st1" d="M641.22,320c-45.01,32.6-82.19,75.8-107.08,125.75-.84,1.73-1.73,3.49-2.61,5.3-29.31,63.72-38.75,136.23-24.69,206.78.6,2.81,1.24,5.7,1.85,8.59,6.79,28.15,17.3,56.65,32.24,85.12-2.05-3.69-4.14-7.39-6.02-11.16-.08-.08-.08-.12-.12-.2-12.01-24.81-20.64-49.67-26.54-74.28-.6-2.89-1.24-5.78-1.85-8.59-13.85-70.5-4.34-143.02,25.17-206.7.88-1.77,1.73-3.57,2.53-5.3,24.97-49.75,62.15-92.83,107.16-125.27l-.04-.04Z"/>
  <path class="st2" d="M1152.18,80.98c98.13,42.68,181.4,119.73,228.02,211.43.2.36.36.64.52,1.04,24.21,47.98,38.42,99.9,39.35,152.97,0,.04.12.16,0,.32-.2,116.72-62.6,228.38-162.41,289.33l-10.04,5.78c-77.09,41.96-168.83,51.67-252.71,29.31-52.04-15.18-102.3-42.88-142.13-79.46-.28-.24-.56-.44-.84-.76-18.91-18.23-36.7-38.87-51.39-62.51,55.81,85.4,176.98,100.9,268.41,80.62,313.58-72.15,337.15-470.05,80.06-621.9l3.09-6.1.08-.08Z"/>
  <path class="st5" d="M956.76,861.07s-.24-.12-.36-.2c0,0,0-.04-.08,0-74.8-35.98-135.11-99.01-167.47-175.66l-.36-.64c-.04-.36-.24-.68-.4-.96-.36-.76-.6-1.49-.88-2.21-6.38-16.42-11.76-33.85-16.02-52.16-4.5-20.28-7.19-42.12-7.75-64.2-.04-2.41-.12-4.86-.12-7.23h0c.04-1.37.08-2.57,0-3.73.08-1.24.08-2.45.12-3.61.04-1.85.08-3.69.12-5.54.04-.72.08-1.53.08-2.33s0-1.61.08-2.33c.04-1.28.2-2.57.24-3.85.2-3.21.44-6.34.72-9.6.2-2.25.4-4.5.76-6.79h0c1.61-13.49,3.93-26.98,7.27-40.55-10.4,52.64.68,102.18,25.62,145.39,13.97,24.17,32.32,46.37,53.64,66.05.28.32.56.56.84.76,39.83,36.58,90.1,64.28,142.13,79.46,83.88,22.36,175.62,12.65,252.71-29.31l10.04-5.78c99.77-60.95,162.21-172.61,162.41-289.33.08-.12,0-.24,0-.32-.92-53.08-15.14-104.99-39.35-152.97-.16-.4-.32-.68-.52-1.04,61.59,109.41,75.4,246.25,38.42,361.68-1.65,5.22-3.45,10.4-5.34,15.58-1.85,5.02-3.77,10.04-5.82,15.02-19.59,47.42-48.18,90.1-85.92,124.39-.2.2-.4.4-.64.52-1.93,1.73-3.85,3.49-5.82,5.18-1.33,1.16-2.61,2.29-4.02,3.33-3.13,2.53-6.26,5.06-9.56,7.47-.64.52-1.37,1.04-2.05,1.49-1.93,1.45-3.93,2.93-5.9,4.3-.92.68-1.97,1.37-2.97,2.01-98.21,67.65-227.53,75.84-333.81,27.66l-.04.08Z"/>
</svg>